# xmcd
# 
# Track frame offsets:
#     150
#     13762
#     25152
#     37635
#     50190
#     65717
#     78342
#     90315
#     103510
#     114802
#     127045
#     141710
#     161542
#     174237
# 
# Disc length: 2497
# 
# Revision: 2
# Processed by: cddbd v1.5.2PL0 Copyright (c) Steve Scherf et al.
# Submitted via: fre:ac v1.0.17
# 
DISCID=b009bf0e
DTITLE=Mariya Takeuchi - Long Time Favorites
DYEAR=2003
DGENRE=New Age
TTITLE0=You Don't Know
TTITLE1=It Hursts To Be Sixteen
TTITLE2=Where The Boys Are
TTITLE3=Dans Le Meme Wagon
TTITLE4=Non Ho L'eta
TTITLE5=Footsteps
TTITLE6=Walk Right Back
TTITLE7=L'amore Ha I Tuoi Occhi
TTITLE8=Johnny Angel
TTITLE9=Un Buco Nella Sabbia
TTITLE10=The Shadow Of Your Smile
TTITLE11=The Windmills Of Your Mind
TTITLE12=Something Stupid
TTITLE13=The End Of The World
EXTD=YEAR: 2003
EXTT0=
EXTT1=
EXTT2=
EXTT3=
EXTT4=
EXTT5=
EXTT6=
EXTT7=
EXTT8=
EXTT9=
EXTT10=
EXTT11=
EXTT12=
EXTT13=
PLAYORDER=
